HIERARCHY
ROOT Hips
{
 OFFSET 0.000000 0.000000 0.000000
 CHANNELS 6 Xposition Yposition Zposition Yrotation Xrotation Zrotation
 JOINT Chest
 {
  OFFSET 0.000000 9.857222 0.000240
  CHANNELS 3 Yrotation Xrotation Zrotation
  JOINT Chest2
  {
   OFFSET 0.000000 10.876940 -0.000436
   CHANNELS 3 Yrotation Xrotation Zrotation
   JOINT Chest3
   {
    OFFSET 0.000000 9.827798 0.000000
    CHANNELS 3 Yrotation Xrotation Zrotation
    JOINT Chest4
    {
     OFFSET 0.000000 9.827798 0.000000
     CHANNELS 3 Yrotation Xrotation Zrotation
     JOINT Neck
     {
      OFFSET 0.000000 13.831992 0.000000
      CHANNELS 3 Yrotation Xrotation Zrotation
      JOINT Head
      {
       OFFSET 0.000000 9.147643 -0.001036
       CHANNELS 3 Yrotation Xrotation Zrotation
       End Site
       {
        OFFSET 0.000000 17.515799 -0.000541
       }
      }
     }
     JOINT RightCollar
     {
      OFFSET -3.001579 7.717577 0.000000
      CHANNELS 3 Yrotation Xrotation Zrotation
      JOINT RightShoulder
      {
       OFFSET -14.002642 0.000000 0.000000
       CHANNELS 3 Yrotation Xrotation Zrotation
       JOINT RightElbow
       {
        OFFSET -30.053852 0.000000 0.000000
        CHANNELS 3 Yrotation Xrotation Zrotation
        JOINT RightWrist
        {
         OFFSET -24.564923 0.000000 -0.000000
         CHANNELS 3 Yrotation Xrotation Zrotation
         End Site
         {
          OFFSET -18.334355 0.000000 0.000000
         }
        }
       }
      }
     }
     JOINT LeftCollar
     {
      OFFSET 3.001579 7.717577 0.000000
      CHANNELS 3 Yrotation Xrotation Zrotation
      JOINT LeftShoulder
      {
       OFFSET 14.002642 0.000000 0.000000
       CHANNELS 3 Yrotation Xrotation Zrotation
       JOINT LeftElbow
       {
        OFFSET 30.053852 0.000000 0.000000
        CHANNELS 3 Yrotation Xrotation Zrotation
        JOINT LeftWrist
        {
         OFFSET 24.564923 0.000000 -0.000000
         CHANNELS 3 Yrotation Xrotation Zrotation
         End Site
         {
          OFFSET 18.334355 0.000000 0.000000
         }
        }
       }
      }
     }
    }
   }
  }
 }
 JOINT RightHip
 {
  OFFSET -8.003235 -0.001175 -0.000120
  CHANNELS 3 Yrotation Xrotation Zrotation
  JOINT RightKnee
  {
   OFFSET 0.000000 -41.759727 0.000113
   CHANNELS 3 Yrotation Xrotation Zrotation
   JOINT RightAnkle
   {
    OFFSET 0.000000 -40.728748 0.000159
    CHANNELS 3 Yrotation Xrotation Zrotation
    JOINT RightToe
    {
     OFFSET 0.000000 -6.515296 14.732841
     CHANNELS 3 Yrotation Xrotation Zrotation
     End Site
     {
      OFFSET 0.000000 -1.502839 6.412115
     }
    }
   }
  }
 }
 JOINT LeftHip
 {
  OFFSET 8.003235 -0.001175 -0.000120
  CHANNELS 3 Yrotation Xrotation Zrotation
  JOINT LeftKnee
  {
   OFFSET 0.000000 -41.759727 0.000113
   CHANNELS 3 Yrotation Xrotation Zrotation
   JOINT LeftAnkle
   {
    OFFSET 0.000000 -40.728748 0.000159
    CHANNELS 3 Yrotation Xrotation Zrotation
    JOINT LeftToe
    {
     OFFSET 0.000000 -6.515296 14.732841
     CHANNELS 3 Yrotation Xrotation Zrotation
     End Site
     {
      OFFSET 0.000000 -1.502839 6.412115
     }
    }
   }
  }
 }
}
MOTION
Frames: 17
Frame Time: 0.016667
0.000000 88.822259 0.000000 0.000000 -5.826342 0.000000 0.000000 11.116423 0.000000 0.000000 -5.290081 0.000000 0.000000 0.000000 0.000000 0.000000 0.000000 0.000000 0.000000 12.665069 0.000000 0.000000 0.575450 0.000000 0.000000 0.000000 0.000000 0.000000 0.000000 0.000000 2.337306 0.000000 0.000000 -2.337306 0.000000 0.000000 0.000000 0.000000 0.000000 0.000000 0.000000 0.000000 -2.337306 0.000000 0.000000 2.337306 0.000000 0.000000 0.000000 8.578828 0.000000 0.000000 1.905768 0.000000 0.000000 -4.658254 0.000000 0.000000 0.000000 0.000000 0.000000 8.578828 0.000000 0.000000 1.905768 0.000000 0.000000 -4.658254 0.000000 0.000000 0.000000 0.000000
8.008558 89.709483 20.486093 -33.852931 -20.501187 1.803315 0.294575 11.337049 1.519436 0.175765 4.966927 0.750288 0.175765 4.966927 0.750288 0.125630 3.725418 0.560931 -10.643601 21.730754 -0.225269 -19.196662 4.753271 2.537413 4.951058 1.429340 9.300703 36.182065 -8.595992 82.853596 17.990697 -16.995407 -11.994475 -5.949786 -3.651109 -11.843503 -20.549156 8.021584 -12.522028 -26.653015 4.001165 -57.521251 -22.281298 -42.670238 3.454325 1.528714 6.802398 1.262140 -0.004461 26.313999 -12.282456 -10.847474 -0.818739 4.084890 -1.262374 -3.503333 5.341245 -0.564236 0.377382 -0.250193 16.170973 20.323152 12.848188 2.071875 7.509583 -1.495658 2.520002 -4.468614 -6.145462 0.104520 0.025312 0.051498
8.005682 89.706208 20.475497 -33.839316 -20.429112 1.831890 0.289253 11.315751 1.506229 0.172013 4.959764 0.748725 0.172013 4.959764 0.748725 0.122839 3.720040 0.559794 -10.648589 21.752542 -0.243881 -19.198982 4.791107 2.502296 4.931124 1.398990 9.330117 35.980285 -8.566021 82.784497 18.482971 -17.454863 -12.374749 -5.891705 -3.855534 -11.977899 -20.612479 8.048770 -12.565830 -26.728799 4.038547 -57.576973 -22.409343 -42.676304 3.491487 1.665775 6.976910 1.103975 0.048283 26.259268 -12.283393 -10.874474 -0.836430 4.087628 -1.271995 -3.485134 5.341165 -0.579027 0.370738 -0.256636 16.213106 20.240234 12.809672 2.058312 7.511948 -1.470795 2.476280 -4.459692 -6.156482 0.108145 0.024927 0.051278
8.004824 89.701961 20.463595 -33.825227 -20.346128 1.854686 0.290996 11.287794 1.496339 0.169225 4.951146 0.746925 0.169225 4.951146 0.746925 0.120775 3.713573 0.558470 -10.654944 21.773967 -0.265312 -19.203024 4.827992 2.462532 4.924878 1.388646 9.370514 35.660019 -8.601512 82.801792 19.114549 -17.962064 -12.945088 -5.825434 -4.088686 -12.114441 -20.671467 8.070036 -12.626366 -26.825739 4.062648 -57.654842 -22.616734 -42.643854 3.675637 1.839025 7.190349 0.998810 0.099780 26.196886 -12.284239 -10.868855 -0.862453 4.084937 -1.299631 -3.461178 5.345569 -0.582508 0.359756 -0.258192 16.255008 20.140443 12.784495 2.065200 7.508781 -1.448535 2.399791 -4.443338 -6.168711 0.108843 0.027305 0.048883
8.000445 89.697992 20.450515 -33.819874 -20.276037 1.881630 0.297065 11.265292 1.482498 0.169838 4.943125 0.743400 0.169838 4.943125 0.743400 0.121273 3.707557 0.555827 -10.658878 21.794182 -0.287032 -19.202704 4.862335 2.421783 4.925684 1.410546 9.414977 35.369450 -8.651584 82.928089 19.955803 -18.629091 -13.761024 -5.712192 -4.362991 -12.297899 -20.704009 8.062201 -12.685965 -26.841976 4.027302 -57.759834 -22.824388 -42.601535 3.933582 2.050821 7.483500 0.975407 0.167804 26.147235 -12.278727 -10.855130 -0.888915 4.084065 -1.320807 -3.449256 5.345622 -0.591871 0.358250 -0.262691 16.307532 20.056923 12.755324 2.063754 7.509384 -1.423308 2.346889 -4.432214 -6.179016 0.112564 0.029373 0.046713
7.996063 89.695163 20.439287 -33.825390 -20.205885 1.913082 0.304862 11.245682 1.465742 0.173725 4.935999 0.739762 0.173725 4.935999 0.739762 0.124225 3.702216 0.553072 -10.659747 21.809240 -0.310610 -19.196693 4.886546 2.377610 4.955643 1.407985 9.454463 35.086294 -8.675757 83.127375 21.025967 -19.462235 -14.792348 -5.545381 -4.714674 -12.451944 -20.702979 8.015481 -12.737974 -26.754479 3.947515 -57.850985 -22.978267 -42.560562 4.130553 2.268285 7.810327 1.039053 0.243804 26.098426 -12.275389 -10.837441 -0.911300 4.081226 -1.377223 -3.438347 5.352502 -0.606304 0.355855 -0.269696 16.366963 19.970286 12.735114 2.031809 7.513554 -1.412052 2.313497 -4.413245 -6.187365 0.113993 0.023169 0.043752
7.980330 89.691580 20.424641 -33.807685 -20.116740 1.926726 0.312393 11.217443 1.456014 0.177845 4.922860 0.734763 0.177845 4.922860 0.734763 0.127370 3.692365 0.549297 -10.660508 21.823824 -0.336482 -19.189891 4.909526 2.329360 4.971119 1.363761 9.518230 34.819261 -8.688851 83.424332 22.320218 -20.500263 -16.127457 -5.347511 -5.055371 -12.524560 -20.702671 7.962071 -12.768819 -26.602338 3.777043 -57.998068 -23.100709 -42.493001 4.338736 2.465576 8.124240 1.168542 0.320617 26.038540 -12.240737 -10.844502 -0.940451 4.070667 -1.406289 -3.434986 5.345378 -0.604763 0.357418 -0.267948 16.409104 19.852199 12.718358 2.018482 7.540837 -1.390373 2.280045 -4.409759 -6.207173 0.116700 0.021845 0.043933
7.960333 89.684981 20.410945 -33.751886 -20.026718 1.925319 0.291951 11.176671 1.446571 0.168425 4.904280 0.732845 0.168425 4.904280 0.732845 0.120348 3.678418 0.547943 -10.650111 21.840902 -0.378783 -19.158196 4.933366 2.248357 4.996598 1.323824 9.570634 34.591236 -8.682872 83.675568 23.702109 -21.680838 -17.645508 -5.058168 -5.494153 -12.546193 -20.669155 7.924910 -12.816051 -26.323080 3.565236 -58.135977 -23.210290 -42.398562 4.436467 2.651737 8.419926 1.354367 0.385679 25.981465 -12.198931 -10.884249 -0.954462 4.072625 -1.418054 -3.446855 5.334825 -0.611714 0.358988 -0.270349 16.415084 19.715654 12.706953 2.047367 7.596220 -1.357841 2.198123 -4.426581 -6.238124 0.120252 0.028384 0.046289
7.934162 89.679729 20.399372 -33.670114 -19.966133 1.907067 0.252899 11.144101 1.434278 0.150791 4.890196 0.732351 0.150791 4.890196 0.732351 0.107152 3.667834 0.547720 -10.630801 21.857538 -0.427826 -19.108564 4.954432 2.152988 5.062083 1.329901 9.655666 34.288184 -8.726942 83.762516 25.017886 -22.816485 -19.059114 -4.610609 -5.947440 -12.730140 -20.625774 7.869833 -12.862553 -26.053067 3.500802 -58.218311 -23.375605 -42.403905 4.452839 2.780457 8.599344 1.570040 0.422769 25.954240 -12.155624 -10.933175 -0.961390 4.085680 -1.413085 -3.455406 5.323397 -0.618262 0.348892 -0.276635 16.437006 19.589681 12.722461 2.144916 7.673842 -1.314642 2.047152 -4.453252 -6.269413 0.121687 0.034389 0.049744
7.897539 89.674329 20.388817 -33.593220 -19.858422 1.871356 0.209994 11.096524 1.420747 0.132408 4.868880 0.731293 0.132408 4.868880 0.731293 0.093408 3.651825 0.547082 -10.604704 21.865123 -0.472387 -19.048519 4.958821 2.065127 5.192243 1.264423 9.766724 33.772727 -8.629176 83.563141 26.240175 -23.906343 -20.333453 -4.075726 -6.140569 -12.794179 -20.565643 7.770307 -12.893971 -25.738979 3.618965 -58.179544 -23.596761 -42.486174 4.324740 2.888376 8.635508 1.707544 0.465169 25.878818 -12.091043 -10.973966 -0.961121 4.102117 -1.412363 -3.470390 5.307825 -0.626671 0.336572 -0.284983 16.538845 19.390607 12.779503 2.248811 7.773698 -1.263479 1.820337 -4.491299 -6.315435 0.124701 0.037633 0.056715
7.847993 89.662502 20.368502 -33.521848 -19.657561 1.816356 0.152868 11.021677 1.405761 0.108571 4.831474 0.731549 0.108571 4.831474 0.731549 0.075584 3.623742 0.547476 -10.570084 21.854132 -0.516591 -18.974375 4.928166 1.978172 5.336548 1.223893 9.864092 33.140522 -8.511683 83.028303 27.208396 -24.856408 -21.416352 -3.476900 -6.231532 -12.834545 -20.460146 7.649413 -12.925351 -25.234814 3.827925 -57.891613 -23.741848 -42.594788 3.814502 2.957710 8.626891 1.752123 0.543602 25.709122 -11.984817 -11.013342 -0.956070 4.113910 -1.441055 -3.508275 5.289516 -0.642001 0.344167 -0.296512 16.728122 19.079638 12.876947 2.320713 7.874356 -1.231947 1.562269 -4.547832 -6.361762 0.131996 0.059874 0.066423
7.789069 89.650304 20.344882 -33.414347 -19.480019 1.776972 0.057360 10.971935 1.359848 0.069008 4.805827 0.721561 0.069008 4.805827 0.721561 0.046040 3.604458 0.540309 -10.524813 21.822035 -0.557047 -18.883349 4.858095 1.897948 5.520096 1.216408 9.970391 32.385335 -8.612563 82.366098 27.802720 -25.533353 -22.385592 -2.763960 -6.259341 -13.140605 -20.317245 7.490693 -12.946854 -25.190594 4.138753 -57.825878 -24.078137 -42.998100 3.856452 3.031917 8.582483 1.756050 0.560764 25.563979 -11.916135 -11.031215 -0.947017 4.131096 -1.410179 -3.591893 5.281369 -0.693223 0.380502 -0.324636 16.953358 18.773085 12.985127 2.345194 7.979999 -1.199965 1.291696 -4.593703 -6.412593 0.139331 0.076051 0.074131
7.713222 89.647105 20.322451 -33.271178 -19.345698 1.744903 -0.066461 10.938273 1.288601 0.020346 4.791468 0.690619 0.020346 4.791468 0.690619 0.009825 3.593629 0.517502 -10.471941 21.788393 -0.585045 -18.782096 4.786321 1.838229 5.685229 1.281306 10.093071 31.619680 -8.855892 81.387665 28.078747 -26.177088 -23.187859 -1.986121 -6.033304 -13.714568 -20.198896 7.352146 -12.972426 -25.432907 4.610993 -57.760937 -24.521254 -43.730688 4.166452 3.112229 8.584024 1.810057 0.536336 25.465125 -11.837532 -11.041304 -0.934029 4.115448 -1.426983 -3.642155 5.263847 -0.700520 0.374034 -0.334306 17.189862 18.502570 13.114100 2.224922 8.072521 -1.187825 1.102392 -4.588360 -6.466530 0.142244 0.049814 0.078975
7.627840 89.637331 20.297167 -33.134305 -19.058296 1.701204 -0.188317 10.830663 1.185682 -0.027493 4.740379 0.647448 -0.027493 4.740379 0.647448 -0.025640 3.555260 0.485522 -10.411152 21.769015 -0.600576 -18.669053 4.741957 1.796851 5.817667 1.303167 10.205858 30.707057 -9.056493 80.003950 28.086323 -26.808449 -23.686194 -1.301726 -5.653042 -14.447655 -20.062191 7.189224 -12.995862 -25.657467 5.205528 -57.641438 -24.997606 -44.417145 4.586350 3.189849 8.516907 1.936038 0.537224 25.209438 -11.735214 -11.047401 -0.908798 4.097287 -1.471577 -3.715701 5.245568 -0.711345 0.384736 -0.345354 17.466506 18.075052 13.216301 1.964612 8.160948 -1.163657 0.993478 -4.607893 -6.538844 0.144678 0.045502 0.081085
7.529856 89.610921 20.267254 -32.931224 -18.731708 1.599887 -0.314612 10.708521 1.056238 -0.087201 4.677846 0.594846 -0.087201 4.677846 0.594846 -0.069927 3.508303 0.446555 -10.346832 21.769312 -0.592379 -18.554984 4.737078 1.794534 5.921491 1.312072 10.311217 29.394066 -9.265279 78.206452 28.107400 -27.517215 -23.922721 -0.820486 -5.356593 -15.190856 -19.903257 6.940601 -12.982021 -25.778686 5.876599 -57.571872 -25.498436 -44.992501 5.146230 3.218140 8.365976 2.213608 0.535433 24.911771 -11.570866 -11.074530 -0.855914 4.080458 -1.520537 -3.838886 5.219579 -0.719506 0.423791 -0.354969 17.679258 17.579501 13.345671 1.617141 8.285512 -1.150819 0.960908 -4.712941 -6.625094 0.154649 0.106601 0.086647
7.412960 89.589574 20.240314 -32.726135 -18.603796 1.438703 -0.422640 10.666297 0.905590 -0.147797 4.663006 0.533455 -0.147797 4.663006 0.533455 -0.114864 3.497129 0.401000 -10.283026 21.777581 -0.551299 -18.450517 4.751799 1.850378 5.990556 1.295641 10.393125 27.546610 -9.677977 76.333882 28.347341 -28.240081 -24.096782 -0.452512 -5.180317 -16.089451 -19.755592 6.695845 -12.964553 -25.620659 6.610993 -57.313281 -25.992100 -45.510058 5.521052 3.109214 8.246845 2.473182 0.608741 24.819030 -11.298253 -11.178189 -0.791758 4.051911 -1.541029 -3.936207 5.185715 -0.719767 0.428709 -0.360442 17.888719 17.286739 13.603646 1.299083 8.371468 -1.150940 0.921855 -4.804942 -6.716278 0.164859 0.167971 0.091237
7.281528 89.586057 20.224227 -32.534012 -18.586909 1.239804 -0.507998 10.683753 0.719136 -0.198937 4.687218 0.457546 -0.198937 4.687218 0.457546 -0.152636 3.515268 0.344496 -10.226229 21.770807 -0.467610 -18.371567 4.745705 1.986612 5.987187 1.235160 10.434418 25.238505 -10.356086 74.461516 28.872426 -28.885622 -24.114188 -0.143222 -5.063414 -17.245166 -19.632158 6.443720 -12.924488 -25.428942 7.446978 -56.659422 -26.250115 -46.114432 5.606100 2.816433 7.798150 2.532048 0.685062 24.830501 -10.985389 -11.272917 -0.711773 4.032269 -1.581823 -3.980583 5.137314 -0.710206 0.372417 -0.359625 18.081322 17.123069 13.915006 1.079582 8.419618 -1.116398 0.832090 -4.836356 -6.817793 0.164930 0.182382 0.087487
